<?xml version="1.0" encoding="UTF-8" standalone="no"?>
<!-- Generator: Adobe Illustrator 21.0.0, SVG Export Plug-In . SVG Version: 6.00 Build 0)  -->

<svg
   xmlns:i="&amp;ns_ai;"
   xmlns:dc="http://purl.org/dc/elements/1.1/"
   xmlns:cc="http://creativecommons.org/ns#"
   xmlns:rdf="http://www.w3.org/1999/02/22-rdf-syntax-ns#"
   xmlns:svg="http://www.w3.org/2000/svg"
   xmlns="http://www.w3.org/2000/svg"
   xmlns:sodipodi="http://sodipodi.sourceforge.net/DTD/sodipodi-0.dtd"
   xmlns:inkscape="http://www.inkscape.org/namespaces/inkscape"
   version="1.1"
   id="Layer_2"
   x="0px"
   y="0px"
   viewBox="0 0 318 219"
   style="enable-background:new 0 0 318 219;"
   xml:space="preserve"
   inkscape:version="0.91 r13725"
   sodipodi:docname="HMI_HVAC_Circulation_Active.svg"><metadata
     id="metadata78"><rdf:RDF><cc:Work
         rdf:about=""><dc:format>image/svg+xml</dc:format><dc:type
           rdf:resource="http://purl.org/dc/dcmitype/StillImage" /></cc:Work></rdf:RDF></metadata><defs
     id="defs76" /><sodipodi:namedview
     pagecolor="#ffffff"
     bordercolor="#666666"
     borderopacity="1"
     objecttolerance="10"
     gridtolerance="10"
     guidetolerance="10"
     inkscape:pageopacity="0"
     inkscape:pageshadow="2"
     inkscape:window-width="2560"
     inkscape:window-height="1464"
     id="namedview74"
     showgrid="false"
     inkscape:zoom="1.0776256"
     inkscape:cx="-249.76907"
     inkscape:cy="109.5"
     inkscape:window-x="0"
     inkscape:window-y="0"
     inkscape:window-maximized="1"
     inkscape:current-layer="Layer_2" /><style
     type="text/css"
     id="style3">
	.st0{fill:url(#SVGID_1_);}
	.st1{fill:url(#SVGID_2_);}
	.st2{fill:url(#SVGID_3_);}
	.st3{fill:url(#SVGID_4_);}
	.st4{fill:url(#SVGID_5_);}
	.st5{fill:url(#SVGID_6_);}
	.st6{fill:url(#SVGID_7_);}
	.st7{fill:url(#SVGID_8_);}
	.st8{fill:none;stroke:url(#SVGID_9_);stroke-miterlimit:10;}
</style><switch
     id="switch5"><g
       i:extraneous="self"
       id="g7"><g
         id="g9"><linearGradient
           id="SVGID_1_"
           gradientUnits="userSpaceOnUse"
           x1="124.8906"
           y1="222.9002"
           x2="297.9268"
           y2="83.4753"><stop
             offset="0"
             style="stop-color:#59FF7F"
             id="stop12" /><stop
             offset="1"
             style="stop-color:#6BFBFF"
             id="stop14" /></linearGradient><path
           class="st0"
           d="M218.2,164.1c-5.7,0-11.1-2.2-15.2-6.3c-4.1-4.1-6.3-9.5-6.3-15.2l2,0c0,5.2,2,10.1,5.7,13.8     c3.7,3.7,8.6,5.7,13.8,5.7c0,0,0,0,0,0c10.8,0,19.5-8.8,19.5-19.6l2,0C239.7,154.4,230.1,164.1,218.2,164.1     C218.2,164.1,218.2,164.1,218.2,164.1z"
           id="path16" /><linearGradient
           id="SVGID_2_"
           gradientUnits="userSpaceOnUse"
           x1="77.6338"
           y1="164.2511"
           x2="250.67"
           y2="24.8262"><stop
             offset="0"
             style="stop-color:#59FF7F"
             id="stop19" /><stop
             offset="1"
             style="stop-color:#6BFBFF"
             id="stop21" /></linearGradient><path
           class="st1"
           d="M97.9,164.3c-5.7,0-11.1-2.2-15.2-6.3c-4.1-4.1-6.3-9.5-6.3-15.2l2,0c0,5.2,2,10.1,5.7,13.8     c3.7,3.7,8.6,5.7,13.8,5.7c0,0,0,0,0,0c5.2,0,10.1-2,13.8-5.7c3.7-3.7,5.7-8.6,5.7-13.8l2,0c0,5.7-2.2,11.2-6.3,15.2     C109.1,162,103.7,164.3,97.9,164.3C97.9,164.3,97.9,164.3,97.9,164.3z"
           id="path23" /><linearGradient
           id="SVGID_3_"
           gradientUnits="userSpaceOnUse"
           x1="93.334"
           y1="183.7362"
           x2="266.3703"
           y2="44.3113"><stop
             offset="0"
             style="stop-color:#59FF7F"
             id="stop26" /><stop
             offset="1"
             style="stop-color:#6BFBFF"
             id="stop28" /></linearGradient><polygon
           class="st2"
           points="118.1,140.2 118.1,138.2 179.3,138.1 179.3,140.1    "
           id="polygon30" /><linearGradient
           id="SVGID_4_"
           gradientUnits="userSpaceOnUse"
           x1="49.8941"
           y1="129.8242"
           x2="222.9303"
           y2="-9.6007"><stop
             offset="0"
             style="stop-color:#59FF7F"
             id="stop33" /><stop
             offset="1"
             style="stop-color:#6BFBFF"
             id="stop35" /></linearGradient><path
           class="st3"
           d="M63.5,140.2c-8.5,0-14.7-14.3-14.7-21.7l0-0.2l6.2-25.2l1.9,0.5l-6.2,25.1c0,3.7,1.6,8.6,3.9,12.6     c2.6,4.5,5.8,7,8.8,7c0,0,0,0,0,0l13.8,0l0,2L63.5,140.2C63.5,140.2,63.5,140.2,63.5,140.2z"
           id="path37" /><linearGradient
           id="SVGID_5_"
           gradientUnits="userSpaceOnUse"
           x1="93.1771"
           y1="183.5415"
           x2="266.2133"
           y2="44.1166"><stop
             offset="0"
             style="stop-color:#59FF7F"
             id="stop40" /><stop
             offset="1"
             style="stop-color:#6BFBFF"
             id="stop42" /></linearGradient><path
           class="st4"
           d="M238.7,140l0-2l15.8,0c2.7,0,5.9-5.8,8.7-15.4c2.2-7.7,3.8-16.7,3.9-20.8l-49-18.5L189.3,49l-35.5,0.1l0-2     l36.4-0.1l29.1,34.5l49.8,18.9l0,0.7c0,3.9-1.5,13.5-4,22.1c-3.2,11.2-6.8,16.9-10.6,16.9L238.7,140z"
           id="path44" /><linearGradient
           id="SVGID_6_"
           gradientUnits="userSpaceOnUse"
           x1="40.6173"
           y1="118.311"
           x2="213.6535"
           y2="-21.1139"><stop
             offset="0"
             style="stop-color:#59FF7F"
             id="stop47" /><stop
             offset="1"
             style="stop-color:#6BFBFF"
             id="stop49" /></linearGradient><path
           class="st5"
           d="M56.7,94.1l-1.2-1.6l21.1-15.9l14.2-18.9c0.6-1,6.2-10.6,18.3-10.6l44.7-0.1l0,2l-44.7,0.1     c-11.2,0-16.3,9.3-16.5,9.6l-0.1,0.1L77.9,78.1L56.7,94.1z"
           id="path51" /><linearGradient
           id="SVGID_7_"
           gradientUnits="userSpaceOnUse"
           x1="70.8807"
           y1="155.8701"
           x2="243.917"
           y2="16.4452"><stop
             offset="0"
             style="stop-color:#59FF7F"
             id="stop54" /><stop
             offset="1"
             style="stop-color:#6BFBFF"
             id="stop56" /></linearGradient><path
           class="st6"
           d="M126.1,111.9c-5.5,0-10.7-2.1-14.5-6c-3.9-3.9-6-9.1-6.1-14.6c0-5.5,2.1-10.7,6-14.6c3.9-3.9,9.1-6,14.6-6.1     l57.1-0.1l0,2l-57.1,0.1c-5,0-9.6,1.9-13.1,5.5c-3.5,3.5-5.4,8.2-5.4,13.2c0,5,1.9,9.6,5.5,13.1c3.5,3.5,8.2,5.4,13.1,5.4     c0,0,0,0,0,0l57.1-0.1l0,2L126.1,111.9C126.2,111.9,126.1,111.9,126.1,111.9z"
           id="path58" /><linearGradient
           id="SVGID_8_"
           gradientUnits="userSpaceOnUse"
           x1="85.2865"
           y1="173.7487"
           x2="258.3227"
           y2="34.3238"><stop
             offset="0"
             style="stop-color:#59FF7F"
             id="stop61" /><stop
             offset="1"
             style="stop-color:#6BFBFF"
             id="stop63" /></linearGradient><polygon
           class="st7"
           points="153.9,121.7 153.2,119.8 180.1,110.8 153.2,101.9 153.8,100 186.4,110.8    "
           id="polygon65" /><linearGradient
           id="SVGID_9_"
           gradientUnits="userSpaceOnUse"
           x1="20.6643"
           y1="240.7757"
           x2="297.3357"
           y2="-21.7757"><stop
             offset="0"
             style="stop-color:#59FF7F"
             id="stop68" /><stop
             offset="1"
             style="stop-color:#6BFBFF"
             id="stop70" /></linearGradient><rect
           x="0.5"
           y="0.5"
           class="st8"
           width="317"
           height="218"
           id="rect72" /></g></g></switch></svg>