<?xml version="1.0" encoding="UTF-8" standalone="no"?>
<!-- Generator: Adobe Illustrator 21.0.0, SVG Export Plug-In . SVG Version: 6.00 Build 0)  -->

<svg
   xmlns:i="&amp;ns_ai;"
   xmlns:dc="http://purl.org/dc/elements/1.1/"
   xmlns:cc="http://creativecommons.org/ns#"
   xmlns:rdf="http://www.w3.org/1999/02/22-rdf-syntax-ns#"
   xmlns:svg="http://www.w3.org/2000/svg"
   xmlns="http://www.w3.org/2000/svg"
   xmlns:sodipodi="http://sodipodi.sourceforge.net/DTD/sodipodi-0.dtd"
   xmlns:inkscape="http://www.inkscape.org/namespaces/inkscape"
   version="1.1"
   id="Layer_1"
   x="0px"
   y="0px"
   viewBox="0 0 114 114"
   style="enable-background:new 0 0 114 114;"
   xml:space="preserve"
   inkscape:version="0.91 r13725"
   sodipodi:docname="HMI_HVAC_Fan_Icon.svg"><metadata
     id="metadata30"><rdf:RDF><cc:Work
         rdf:about=""><dc:format>image/svg+xml</dc:format><dc:type
           rdf:resource="http://purl.org/dc/dcmitype/StillImage" /></cc:Work></rdf:RDF></metadata><defs
     id="defs28" /><sodipodi:namedview
     pagecolor="#ffffff"
     bordercolor="#666666"
     borderopacity="1"
     objecttolerance="10"
     gridtolerance="10"
     guidetolerance="10"
     inkscape:pageopacity="0"
     inkscape:pageshadow="2"
     inkscape:window-width="2560"
     inkscape:window-height="1464"
     id="namedview26"
     showgrid="false"
     inkscape:zoom="2.0701754"
     inkscape:cx="-124.14407"
     inkscape:cy="57"
     inkscape:window-x="0"
     inkscape:window-y="0"
     inkscape:window-maximized="1"
     inkscape:current-layer="Layer_1" /><style
     type="text/css"
     id="style3">
	.st0{fill:none;stroke:#FFFFFF;stroke-width:2;stroke-miterlimit:10;}
	.st1{fill:url(#SVGID_1_);}
</style><switch
     id="switch5"><g
       i:extraneous="self"
       id="g7"><g
         id="g9"><g
           id="g11"><ellipse
             transform="matrix(0.8685 -0.4958 0.4958 0.8685 -21.9603 36.0747)"
             class="st0"
             cx="57"
             cy="59.4"
             rx="3.7"
             ry="3.7"
             id="ellipse13" /><path
             class="st0"
             d="M58.1,50.7c-1.8-0.2-3.8,0.1-5.5,1.1c-0.6,0.3-1.1,0.7-1.6,1.2c-0.2-0.5-0.3-1-0.5-1.6      c-1.4-5.9,4.5-8.1,5.1-14.1c0.9-8.6-10.6-8.8-15.3-3.7c-6.2,6.7-3.6,14-0.4,18.3c2.5,3.2,5.5,5.2,8.3,6.3      c-0.2,1.8,0.1,3.8,1.1,5.5c0.3,0.6,0.7,1.1,1.2,1.6c-0.5,0.2-1,0.3-1.6,0.5c-5.9,1.4-8.1-4.5-14.1-5.1      c-8.6-0.9-8.8,10.6-3.7,15.3c6.7,6.2,14,3.6,18.3,0.3c3.2-2.5,5.2-5.5,6.3-8.3c1.8,0.2,3.8-0.1,5.5-1.1c0.6-0.3,1.1-0.7,1.6-1.2      c0.2,0.5,0.3,1,0.5,1.6c1.4,5.9-4.5,8.1-5.1,14.1c-0.9,8.6,10.6,8.8,15.3,3.7c6.2-6.7,3.6-14,0.3-18.3c-2.5-3.2-5.5-5.2-8.3-6.3      c0.2-1.8-0.1-3.8-1.1-5.5c-0.3-0.6-0.7-1.1-1.2-1.6c0.5-0.2,1-0.3,1.6-0.5c5.9-1.4,8.1,4.5,14.1,5.1c8.6,0.9,8.8-10.6,3.7-15.3      c-6.7-6.2-14-3.6-18.3-0.4c-1.2,0.9-2.2,1.8-3,2.8"
             id="path15" /></g><g
           id="g17"><linearGradient
             id="SVGID_1_"
             gradientUnits="userSpaceOnUse"
             x1="-26.1323"
             y1="141.6157"
             x2="145.4036"
             y2="-22.8267"
             gradientTransform="matrix(1 5.464556e-03 -5.464556e-03 1 -2.5808 -2.4627)"><stop
               offset="0"
               style="stop-color:#59FF7F"
               id="stop20" /><stop
               offset="1"
               style="stop-color:#6BFBFF"
               id="stop22" /></linearGradient><path
             class="st1"
             d="M57,114c-0.1,0-0.2,0-0.3,0C25.3,113.8-0.2,88.1,0,56.7C0.2,25.4,25.7,0,57,0c0.1,0,0.2,0,0.3,0      c31.4,0.2,56.9,25.9,56.7,57.3l0,0C113.8,88.6,88.3,114,57,114z M57,2C26.8,2,2.2,26.5,2,56.7C1.8,87,26.4,111.8,56.7,112      c0.1,0,0.2,0,0.3,0c30.2,0,54.8-24.5,55-54.7C112.2,27,87.6,2.2,57.3,2C57.2,2,57.1,2,57,2z"
             id="path24" /></g></g></g></switch></svg>