<?xml version="1.0" encoding="UTF-8" standalone="no"?>
<!-- Generator: Adobe Illustrator 21.0.0, SVG Export Plug-In . SVG Version: 6.00 Build 0)  -->

<svg
   xmlns:i="&amp;ns_ai;"
   xmlns:dc="http://purl.org/dc/elements/1.1/"
   xmlns:cc="http://creativecommons.org/ns#"
   xmlns:rdf="http://www.w3.org/1999/02/22-rdf-syntax-ns#"
   xmlns:svg="http://www.w3.org/2000/svg"
   xmlns="http://www.w3.org/2000/svg"
   xmlns:sodipodi="http://sodipodi.sourceforge.net/DTD/sodipodi-0.dtd"
   xmlns:inkscape="http://www.inkscape.org/namespaces/inkscape"
   version="1.1"
   id="Layer_2"
   x="0px"
   y="0px"
   viewBox="0 0 140 140"
   style="enable-background:new 0 0 140 140;"
   xml:space="preserve"
   inkscape:version="0.91 r13725"
   sodipodi:docname="HMI_HVAC_AirDown_Active.svg"><metadata
     id="metadata49"><rdf:RDF><cc:Work
         rdf:about=""><dc:format>image/svg+xml</dc:format><dc:type
           rdf:resource="http://purl.org/dc/dcmitype/StillImage" /></cc:Work></rdf:RDF></metadata><defs
     id="defs47" /><sodipodi:namedview
     pagecolor="#ffffff"
     bordercolor="#666666"
     borderopacity="1"
     objecttolerance="10"
     gridtolerance="10"
     guidetolerance="10"
     inkscape:pageopacity="0"
     inkscape:pageshadow="2"
     inkscape:window-width="2560"
     inkscape:window-height="1464"
     id="namedview45"
     showgrid="false"
     inkscape:zoom="1.6857143"
     inkscape:cx="-158.09322"
     inkscape:cy="70"
     inkscape:window-x="0"
     inkscape:window-y="0"
     inkscape:window-maximized="1"
     inkscape:current-layer="Layer_2" /><style
     type="text/css"
     id="style3">
	.st0{fill:url(#SVGID_1_);}
	.st1{fill:url(#SVGID_2_);}
	.st2{fill:url(#SVGID_3_);}
	.st3{fill:none;stroke:url(#SVGID_4_);stroke-width:2;stroke-miterlimit:10;}
</style><switch
     id="switch5"><g
       i:extraneous="self"
       id="g7"><g
         id="g9"><g
           id="g11"><linearGradient
             id="SVGID_1_"
             gradientUnits="userSpaceOnUse"
             x1="-30.4928"
             y1="171.0748"
             x2="175.6512"
             y2="-26.5445"
             gradientTransform="matrix(1 5.464556e-03 -5.464556e-03 1 -2.5085 -2.852)"><stop
               offset="0"
               style="stop-color:#59FF7F"
               id="stop14" /><stop
               offset="1"
               style="stop-color:#6BFBFF"
               id="stop16" /></linearGradient><path
             class="st0"
             d="M70,138c-0.1,0-0.3,0-0.4,0c-37.8-0.2-68.3-31.1-68.1-68.9C1.7,31.5,32.4,1,70,1c0.1,0,0.3,0,0.4,0      c37.8,0.2,68.3,31.1,68.1,68.9l0,0C138.3,107.5,107.6,138,70,138z M70,3.4C33.7,3.4,4.1,32.8,3.9,69.1      c-0.2,36.4,29.3,66.3,65.7,66.5c0.1,0,0.2,0,0.4,0c36.3,0,65.9-29.4,66.1-65.7c0.2-36.4-29.3-66.3-65.7-66.5      C70.2,3.4,70.1,3.4,70,3.4z"
             id="path18" /></g><g
           id="g20"><g
             id="g22"><linearGradient
               id="SVGID_2_"
               gradientUnits="userSpaceOnUse"
               x1="12.0669"
               y1="139.3421"
               x2="145.452"
               y2="27.6709"><stop
                 offset="0"
                 style="stop-color:#59FF7F"
                 id="stop25" /><stop
                 offset="1"
                 style="stop-color:#6BFBFF"
                 id="stop27" /></linearGradient><path
               class="st1"
               d="M96.9,64.7c-3.4-1.7-7.5-0.3-9.2,3.1l-10,19.9l-20.2-5.2c-2-0.5-4,0.2-5.2,1.9l-15.4,20.9       c-1.6,2.2-1.2,5.3,1.1,6.9c0.9,0.7,1.9,1,2.9,1c1.5,0,3-0.7,4-2l13.4-18.2l21.3,5.5c0.1,0.1,0.2,0.1,0.4,0.2       c1,0.5,2,0.7,3.1,0.7c2.5,0,5-1.4,6.2-3.8L100,73.9C101.7,70.5,100.3,66.4,96.9,64.7z"
               id="path29" /><linearGradient
               id="SVGID_3_"
               gradientUnits="userSpaceOnUse"
               x1="4.8135"
               y1="130.6783"
               x2="138.1985"
               y2="19.0071"><stop
                 offset="0"
                 style="stop-color:#59FF7F"
                 id="stop32" /><stop
                 offset="1"
                 style="stop-color:#6BFBFF"
                 id="stop34" /></linearGradient><circle
               class="st2"
               cx="97.2"
               cy="53.3"
               r="8.3"
               id="circle36" /></g></g><linearGradient
           id="SVGID_4_"
           gradientUnits="userSpaceOnUse"
           x1="37.4258"
           y1="52.8987"
           x2="66.8067"
           y2="52.8987"><stop
             offset="0"
             style="stop-color:#59FF7F"
             id="stop39" /><stop
             offset="1"
             style="stop-color:#6BFBFF"
             id="stop41" /></linearGradient><path
           class="st3"
           d="M57.3,56.5h-0.5V34.9c0-0.2-0.2-0.4-0.4-0.4h-8c-0.2,0-0.4,0.2-0.4,0.4v21.6h-9.4c-0.1,0.1,0,0.4,0.1,0.6     L52,71.3c0.1,0.1,0.3,0.1,0.4,0l13.4-14.2c0.1-0.1,0-0.4-0.1-0.6h-1.6"
           id="path43" /></g></g></switch></svg>