<?xml version="1.0" encoding="UTF-8" standalone="no"?>
<!-- Generator: Adobe Illustrator 21.0.0, SVG Export Plug-In . SVG Version: 6.00 Build 0)  -->

<svg
   xmlns:i="&amp;ns_ai;"
   xmlns:dc="http://purl.org/dc/elements/1.1/"
   xmlns:cc="http://creativecommons.org/ns#"
   xmlns:rdf="http://www.w3.org/1999/02/22-rdf-syntax-ns#"
   xmlns:svg="http://www.w3.org/2000/svg"
   xmlns="http://www.w3.org/2000/svg"
   xmlns:sodipodi="http://sodipodi.sourceforge.net/DTD/sodipodi-0.dtd"
   xmlns:inkscape="http://www.inkscape.org/namespaces/inkscape"
   version="1.1"
   id="Layer_2"
   x="0px"
   y="0px"
   viewBox="0 0 172 172"
   style="enable-background:new 0 0 172 172;"
   xml:space="preserve"
   inkscape:version="0.91 r13725"
   sodipodi:docname="HMI_HVAC_Right_Chair_ON.svg"><metadata
     id="metadata54"><rdf:RDF><cc:Work
         rdf:about=""><dc:format>image/svg+xml</dc:format><dc:type
           rdf:resource="http://purl.org/dc/dcmitype/StillImage" /></cc:Work></rdf:RDF></metadata><defs
     id="defs52" /><sodipodi:namedview
     pagecolor="#ffffff"
     bordercolor="#666666"
     borderopacity="1"
     objecttolerance="10"
     gridtolerance="10"
     guidetolerance="10"
     inkscape:pageopacity="0"
     inkscape:pageshadow="2"
     inkscape:window-width="2560"
     inkscape:window-height="1464"
     id="namedview50"
     showgrid="false"
     inkscape:zoom="1.372093"
     inkscape:cx="-265.28814"
     inkscape:cy="86"
     inkscape:window-x="0"
     inkscape:window-y="0"
     inkscape:window-maximized="1"
     inkscape:current-layer="Layer_2" /><style
     type="text/css"
     id="style3">
	.st0{opacity:0.43;fill:url(#SVGID_1_);}
	.st1{fill:none;stroke:#66FF99;stroke-width:4;stroke-miterlimit:10;}
	.st2{fill:#66FF99;}
</style><switch
     id="switch5"><g
       i:extraneous="self"
       id="g7"><g
         id="g9"><linearGradient
           id="SVGID_1_"
           gradientUnits="userSpaceOnUse"
           x1="-670.8471"
           y1="198.7467"
           x2="-556.4836"
           y2="-3.84"
           gradientTransform="matrix(-1 0 0 1 -518.3083 0)"><stop
             offset="0"
             style="stop-color:#59FF7F"
             id="stop12" /><stop
             offset="1"
             style="stop-color:#6BFBFF"
             id="stop14" /></linearGradient><path
           class="st0"
           d="M139.7,135H47.3L8.1,20.1c0,0-2.5-10.9,9.1-11.4c11.6-0.5,19,16.2,19,16.2s12.3,40.7,24.1,70.4     c0,0,76.7-4.6,89.8-4.6c13.1,0,16.6,5.1,12.5,14.1S139.7,135,139.7,135z"
           id="path16" /><g
           id="g18"><g
             id="g20"><path
               class="st1"
               d="M129.6,163.3c0,0-35.8-24-12.9-58.3c17.5-26.3,25.5-41.8,24.4-56.7"
               id="path22" /><g
               id="g24"><polygon
                 class="st2"
                 points="151,49.1 137.6,34.4 131.6,53.4       "
                 id="polygon26" /></g></g></g><g
           id="g28"><g
             id="g30"><path
               class="st1"
               d="M105.9,163.3c0,0-35.8-24-12.9-58.3c17.5-26.3,25.5-41.8,24.4-56.7"
               id="path32" /><g
               id="g34"><polygon
                 class="st2"
                 points="127.4,49.1 113.9,34.4 107.9,53.4       "
                 id="polygon36" /></g></g></g><g
           id="g38"><g
             id="g40"><path
               class="st1"
               d="M81.6,163.3c0,0-35.8-24-12.9-58.3c17.5-26.3,25.5-41.8,24.4-56.7"
               id="path42" /><g
               id="g44"><polygon
                 class="st2"
                 points="103.1,49.1 89.6,34.4 83.7,53.4       "
                 id="polygon46" /></g></g></g><path
           class="st1"
           d="M139.7,135H47.3L8.1,20.1c0,0-2.5-10.9,9.1-11.4c11.6-0.5,19,16.2,19,16.2s12.3,40.7,24.1,70.4     c0,0,76.7-4.6,89.8-4.6c13.1,0,16.6,5.1,12.5,14.1S139.7,135,139.7,135z"
           id="path48" /></g></g></switch></svg>